<svg xmlns="http://www.w3.org/2000/svg" viewBox="0 0 105.31 119.39"><title>sas_1</title><g id="Calque_2" data-name="Calque 2"><g id="Calque_1-2" data-name="Calque 1"><path d="M47,2H58.36C62.16,40.41,66,78.7,69.77,117.16H63C62,107,61,97,60,86.82H45.13c-.4,3.77-.81,7.46-1.17,11.15-.56,5.8-1.11,11.6-1.58,17.4-.11,1.48-.65,2.07-2.15,2s-3,0-4.88,0C39.22,78.84,43.07,40.58,47,2ZM59.5,80.46c-2.23-23.85-4.43-47.44-6.63-71l-.44,0c-2.26,23.62-4.51,47.23-6.78,71Z"/><path d="M77.39,80.74h6.83c0,3,0,5.78,0,8.59,0,5.33-.08,10.65,0,16,.07,6.11,3.42,9,9,7.93,3.19-.61,5.11-3.75,5.12-8.39q0-14.73,0-29.46c0-.66,0-1.33-.07-2a16,16,0,0,0-7.38-13.17c-1.52-1-2.89-2.25-4.4-3.29C80,52.49,77.21,46.26,77.23,38.58c0-8.15,0-16.31,0-24.46,0-5.08,1.2-9.78,6.17-12.2a16.67,16.67,0,0,1,16.46.52,8.75,8.75,0,0,1,4.36,7c.54,8.1.69,16.22,1,24.48H98V31.08c0-5.82.1-11.65,0-17.47s-3.88-8.9-9.3-7.38C85.86,7,84.2,10,84.2,14.32q0,10.35,0,20.72c0,1.41,0,2.83.12,4.24a14.58,14.58,0,0,0,5.62,11c2.1,1.63,4.15,3.34,6.34,4.85,6.21,4.31,8.88,10.4,8.94,17.73q.12,16.11,0,32.21c0,5.2-1.26,10.1-6.53,12.5-5.72,2.6-11.53,2.54-16.89-1a10,10,0,0,1-4.35-8.35C77.28,99.11,77.39,90.05,77.39,80.74Z"/><path d="M27.84,33.89h-6.9c0-6.55,0-12.95,0-19.34a14.23,14.23,0,0,0-.59-4.16c-1-3.16-2.87-4.47-6.07-4.57a6,6,0,0,0-6.45,4.42,14.5,14.5,0,0,0-.76,4.38C7,21.78,7.05,28.94,7,36.1,7,42.58,9,48,14.66,51.71c1.59,1,3,2.36,4.59,3.45,6.12,4.24,8.81,10.2,8.82,17.5q0,16.36,0,32.72c0,5.29-1.47,10-6.79,12.3-5.68,2.44-11.54,2.5-16.58-1.32-2-1.5-3.88-4.46-4-6.84C.24,100,.51,90.44.51,80.74H7v5.2c0,6.25-.07,12.49,0,18.73a14.47,14.47,0,0,0,.86,4.61c1.09,3,3.12,4.3,6.31,4.25s5.15-1.32,6.19-4.4A13.33,13.33,0,0,0,21.1,105c.06-9.9,0-19.81,0-29.72,0-6.35-2-11.54-7.5-15.12-1.53-1-2.89-2.26-4.4-3.29C2.76,52.41.13,46,.06,38.44,0,30.37,0,22.29.09,14.22.17,8.8,1.58,3.89,7.12,1.5a17.76,17.76,0,0,1,13.4-.26c5.31,1.93,7,6.52,7.24,11.52C28.08,19.73,27.84,26.72,27.84,33.89Z"/></g></g></svg>